<?xml version="1.0" standalone="no"?>
<!DOCTYPE svg PUBLIC "-//W3C//DTD SVG 20010904//EN"
 "http://www.w3.org/TR/2001/REC-SVG-20010904/DTD/svg10.dtd">
<svg version="1.0" xmlns="http://www.w3.org/2000/svg"
 width="56.000000pt" height="56.000000pt" viewBox="0 0 56.000000 56.000000"
 preserveAspectRatio="xMidYMid meet">
<g transform="translate(0.000000,56.000000) scale(0.100000,-0.100000)"
fill="#000000" stroke="none">
<path d="M116 547 c3 -10 9 -15 12 -12 3 3 0 11 -7 18 -10 9 -11 8 -5 -6z"/>
<path d="M230 546 c0 -15 14 -21 35 -16 6 2 39 2 75 1 75 -2 78 5 5 10 -27 2
-53 9 -57 14 -5 6 -8 5 -8 -4 0 -11 -3 -11 -17 0 -15 12 -16 12 -8 -1 8 -13 7
-13 -8 -1 -15 12 -17 11 -17 -3z"/>
<path d="M430 550 c0 -6 7 -10 15 -10 8 0 15 2 15 4 0 2 -7 6 -15 10 -8 3 -15
1 -15 -4z"/>
<path d="M95 534 c9 -9 13 -19 10 -22 -3 -4 -10 -1 -14 6 -4 8 -8 -20 -8 -61
0 -41 -4 -80 -7 -86 -4 -6 -3 -11 2 -11 6 0 9 -47 9 -114 -1 -81 -5 -112 -13
-109 -7 2 -15 0 -19 -6 -3 -7 3 -11 15 -11 13 0 19 -4 14 -12 -4 -7 -3 -8 4
-4 16 10 15 -7 -1 -23 -10 -10 -9 -11 5 -6 10 4 18 10 18 14 0 3 50 6 110 6
61 0 110 -2 110 -5 0 -3 26 -5 58 -5 33 0 59 4 59 10 0 32 5 45 17 45 9 0 12
8 8 27 -5 24 -6 25 -12 8 -4 -11 -8 56 -8 150 -1 122 2 171 11 177 8 5 5 8 -8
8 -15 0 -17 2 -7 9 10 6 7 10 -11 13 -18 4 -24 1 -20 -9 6 -16 -42 -18 -81 -3
-14 5 -26 6 -26 2 0 -4 -23 -8 -51 -10 -43 -2 -50 0 -46 13 4 8 2 15 -3 15 -6
0 -10 -6 -10 -14 0 -8 -10 -13 -25 -13 -27 0 -24 17 3 18 11 0 12 2 4 6 -7 3
-24 -2 -37 -11 -23 -15 -25 -15 -35 4 -6 11 -15 20 -21 20 -6 0 -3 -7 6 -16z
m345 -223 c0 -223 25 -197 -191 -193 l-145 3 -1 189 -1 190 169 0 169 0 0
-189z"/>
<path d="M120 310 l0 -180 154 0 154 0 1 180 1 180 -155 0 -155 0 0 -180z
m113 157 c-3 -5 -7 -6 -11 -3 -3 3 -11 -2 -19 -12 -8 -9 -12 -12 -9 -5 4 6 2
14 -3 18 -6 3 -8 -4 -6 -16 3 -15 0 -19 -11 -15 -8 3 -13 2 -10 -3 3 -4 -2
-16 -12 -24 -16 -15 -18 -15 -19 6 -3 40 20 62 65 62 22 0 38 -3 35 -8z m114
0 c7 -4 21 -3 31 2 16 9 19 6 17 -17 -1 -15 3 -34 9 -42 6 -9 2 -8 -11 3 -11
10 -23 14 -26 9 -4 -4 3 -16 14 -25 16 -14 19 -30 19 -102 l0 -85 -44 0 -45 0
15 28 c15 29 19 97 5 88 -4 -3 -6 -17 -3 -31 2 -15 0 -25 -7 -25 -7 0 -11 -8
-9 -17 1 -10 -2 -19 -7 -20 -6 -2 -10 18 -10 44 0 41 4 49 25 60 21 11 27 10
37 -3 14 -20 32 -10 30 16 -1 10 -5 16 -10 13 -4 -3 -7 3 -5 12 2 10 -3 20
-10 22 -9 4 -11 -3 -7 -24 l6 -28 -15 25 c-8 14 -18 24 -23 22 -4 -1 -9 7 -9
18 -2 31 -14 37 -14 7 0 -14 5 -29 10 -32 6 -4 7 -11 4 -17 -5 -7 -1 -9 9 -5
26 10 20 -6 -6 -19 -21 -9 -23 -8 -24 20 -1 26 -8 77 -13 96 -1 3 -6 -6 -11
-19 -8 -19 -12 -21 -24 -11 -12 10 -15 9 -15 -4 0 -10 4 -14 10 -11 6 4 9 -5
8 -19 -1 -15 -6 -26 -11 -26 -5 0 -7 6 -4 14 4 10 0 12 -14 9 -10 -3 -19 -9
-19 -13 0 -4 -8 -11 -17 -15 -15 -5 -16 -4 -5 6 6 7 12 18 12 24 0 5 -7 1 -15
-9 -17 -22 -20 -66 -6 -66 18 0 41 12 41 22 0 6 -6 6 -14 -1 -10 -8 -16 -9
-21 -1 -4 6 -2 9 4 8 5 -2 17 6 25 17 9 11 16 14 16 8 0 -7 8 -13 18 -14 14 0
14 -2 -3 -9 -18 -8 -18 -9 -2 -9 17 -1 18 -8 15 -61 -3 -60 -3 -60 25 -60 15
0 27 -3 27 -7 0 -5 -26 -7 -57 -6 -32 1 -68 2 -79 2 -20 1 -21 7 -23 76 -1 41
3 84 9 95 14 25 87 73 101 65 5 -4 8 -1 7 7 -2 8 5 12 20 11 13 -2 21 1 18 5
-6 11 34 9 51 -1z m-72 -57 c3 -5 1 -10 -4 -10 -6 0 -11 5 -11 10 0 6 2 10 4
10 3 0 8 -4 11 -10z m2 -86 c2 -41 -3 -42 -11 -2 -3 21 0 38 8 38 1 0 2 -16 3
-36z m103 16 c0 -5 -2 -10 -4 -10 -3 0 -8 5 -11 10 -3 6 -1 10 4 10 6 0 11 -4
11 -10z m-120 -152 c0 -7 -58 -13 -88 -9 -10 2 -11 -2 -3 -18 10 -17 8 -19
-10 -16 -30 6 -31 9 -13 31 12 14 28 19 65 19 27 0 49 -3 49 -7z m138 -20 c9
-25 8 -28 -10 -28 -16 0 -19 5 -15 21 5 19 2 20 -36 18 -55 -2 -67 -1 -67 9 0
5 26 8 59 8 54 -1 59 -3 69 -28z m-138 -18 c0 -4 -13 -7 -30 -8 -28 -1 -37 7
-25 20 8 7 55 -3 55 -12z m90 0 c0 -5 -18 -10 -40 -10 -22 0 -40 5 -40 10 0 6
18 10 40 10 22 0 40 -4 40 -10z"/>
<path d="M305 460 c-7 -12 13 -23 27 -14 7 5 8 3 2 -7 -14 -23 -13 -39 3 -39
13 0 13 3 3 15 -11 13 -10 14 3 10 22 -9 30 10 11 26 -20 16 -42 20 -49 9z"/>
<path d="M223 275 c0 -33 2 -45 4 -27 2 18 2 45 0 60 -2 15 -4 0 -4 -33z"/>
<path d="M202 290 c0 -19 2 -27 5 -17 2 9 2 25 0 35 -3 9 -5 1 -5 -18z"/>
<path d="M461 384 c0 -11 3 -14 6 -6 3 7 2 16 -1 19 -3 4 -6 -2 -5 -13z"/>
<path d="M18 153 c7 -3 16 -2 19 1 4 3 -2 6 -13 5 -11 0 -14 -3 -6 -6z"/>
<path d="M173 72 c-29 -2 -53 -7 -53 -12 0 -5 26 -8 58 -6 31 1 63 1 70 -2 20
-7 13 -25 -8 -19 -30 8 -14 -10 20 -21 18 -7 32 -7 35 -1 4 5 11 9 16 9 6 0 7
-5 4 -10 -8 -13 18 -8 27 5 10 14 -32 24 -58 14 -19 -7 -21 -5 -16 14 3 12 7
16 10 9 2 -8 9 -9 23 -2 13 8 19 7 19 0 0 -7 7 -7 21 1 20 10 21 9 17 -20 -5
-33 -1 -33 16 0 8 15 22 23 50 25 22 2 43 7 48 12 4 4 -17 5 -47 2 -30 -3 -55
-4 -55 -1 0 6 -113 8 -197 3z"/>
<path d="M164 35 c1 -8 6 -18 11 -22 4 -4 5 -2 1 5 -4 6 -2 12 3 12 6 0 11 -4
11 -8 0 -5 7 -9 15 -9 22 0 19 5 -14 22 -25 12 -29 13 -27 0z"/>
<path d="M458 13 c7 -3 16 -2 19 1 4 3 -2 6 -13 5 -11 0 -14 -3 -6 -6z"/>
</g>
</svg>
