<svg width="64" height="64" viewBox="0 0 64 64" fill="none" xmlns="http://www.w3.org/2000/svg">
  <path d="M31.9 17.2c-6.1 0-11.5 3.8-13.3 9.3C12.3 26.3 8 31 8 36.7 8 43.1 13 48 19.3 48H44c6 0 11-4.8 11-10.8 0-5.4-4-9.7-9-8.7-.8-5.5-5.7-11.3-14.1-11.3Z" fill="#E8EAED" stroke="#5F6368" stroke-width="2.5" stroke-linecap="round" stroke-linejoin="round"/>
  <path d="M20 33.9c.2-1.6.8-3.1 1.8-4.5l-3.5-3.6c-2 2-3.5 4.5-4 7.2l5.7.9Z" fill="#EA4335"/>
  <path d="M25.7 26.8c1.2-.9 2.8-1.7 4.5-2l.1-5.5c-3.4.4-6.3 1.7-8.8 3.7l4.2 3.8Z" fill="#4285F4"/>
  <path d="M33.8 24.7c1.8.1 3.6.7 5.2 1.7l3.9-3.5c-2.6-2-5.8-3.2-9.1-3.4v5.2Z" fill="#34A853"/>
  <path d="M41.7 27.7c1.3 1.5 2 3.4 2.3 5.3l5.4-.6c-.3-3.4-1.9-6.5-4.4-8.8l-3.3 4.1Z" fill="#FBBC04"/>
</svg>
